<svg width="128" height="128" viewBox="0 0 128 128" fill="none" xmlns="http://www.w3.org/2000/svg">
<g clip-path="url(#clip0_25_2)">
<path fill-rule="evenodd" clip-rule="evenodd" d="M84.8241 96.4355L91.1752 123.838C87.1368 124.597 82.9092 125 78.5556 125C50.0822 125 27 107.763 27 86.5C27 65.237 50.0822 48 78.5556 48C82.8925 48 87.1044 48.3999 91.1286 49.153L83.6727 76.3734C82.0254 76.13 80.2909 76 78.5 76C67.7304 76 59 80.701 59 86.5C59 92.299 67.7304 97 78.5 97C80.7135 97 82.8409 96.8014 84.8241 96.4355Z" fill="#0500F3"/>
<g style="mix-blend-mode:multiply">
<path fill-rule="evenodd" clip-rule="evenodd" d="M84.8241 51.4355L91.1752 78.8383C87.1368 79.597 82.9092 80 78.5556 80C50.0822 80 27 62.763 27 41.5C27 20.237 50.0822 3 78.5556 3C82.8925 3 87.1044 3.3999 91.1286 4.15302L83.6727 31.3734C82.0254 31.13 80.2909 31 78.5 31C67.7304 31 59 35.701 59 41.5C59 47.299 67.7304 52 78.5 52C80.7135 52 82.8409 51.8014 84.8241 51.4355Z" fill="#800095"/>
</g>
</g>
<defs>
<clipPath id="clip0_25_2">
<rect width="128" height="128" fill="white"/>
</clipPath>
</defs>
</svg>

