<svg width="128" height="128" viewBox="0 0 128 128" fill="none" xmlns="http://www.w3.org/2000/svg">
<g clip-path="url(#clip0_25_2)">
<rect width="128" height="128" rx="16" />
<path fill-rule="evenodd" clip-rule="evenodd" d="M84.8393 93.6613L90.6428 118.929C86.9526 119.628 83.0895 120 79.1111 120C53.0924 120 32 104.106 32 84.5C32 64.8939 53.0924 49 79.1111 49C83.0742 49 86.9229 49.3687 90.6003 50.0632L83.7872 75.1625C82.2818 74.9381 80.6968 74.8182 79.0603 74.8182C69.2192 74.8182 61.2414 79.1529 61.2414 84.5C61.2414 89.8471 69.2192 94.1818 79.0603 94.1818C81.0831 94.1818 83.0271 93.9987 84.8393 93.6613Z" fill="#0500F3"/>
<g style="mix-blend-mode:multiply">
<path fill-rule="evenodd" clip-rule="evenodd" d="M84.8393 52.6613L90.6428 77.9288C86.9526 78.6284 83.0895 79 79.1111 79C53.0924 79 32 63.1061 32 43.5C32 23.8939 53.0924 8 79.1111 8C83.0742 8 86.9229 8.36874 90.6003 9.06317L83.7872 34.1625C82.2818 33.9381 80.6968 33.8182 79.0603 33.8182C69.2192 33.8182 61.2414 38.1529 61.2414 43.5C61.2414 48.8471 69.2192 53.1818 79.0603 53.1818C81.0831 53.1818 83.0271 52.9987 84.8393 52.6613Z" fill="#800095"/>
</g>
</g>
<defs>
<clipPath id="clip0_25_2">
<rect width="128" height="128" rx="12" fill="white"/>
</clipPath>
</defs>
</svg>

